<?xml version="1.0" encoding="iso-8859-1"?>
<!-- Generator: Adobe Illustrator 19.0.0, SVG Export Plug-In . SVG Version: 6.00 Build 0)  -->
<svg xmlns="http://www.w3.org/2000/svg" xmlns:xlink="http://www.w3.org/1999/xlink" version="1.1" id="Capa_1" x="0px" y="0px" viewBox="0 0 512 512" style="enable-background:new 0 0 512 512;" xml:space="preserve" width="512px" height="512px">
<g>
	<g>
		<path d="M373.333,21.333H10.667C4.779,21.333,0,26.112,0,32v320c0,0.384,0.171,0.725,0.213,1.088    c0.085,0.725,0.192,1.408,0.427,2.091c0.213,0.661,0.469,1.259,0.811,1.856c0.32,0.576,0.661,1.109,1.088,1.621    c0.469,0.576,1.003,1.067,1.579,1.536c0.277,0.235,0.448,0.555,0.768,0.747c0.256,0.171,0.555,0.171,0.811,0.32    c0.64,0.341,1.28,0.576,1.984,0.789c0.725,0.213,1.408,0.363,2.133,0.427c0.32,0.043,0.555,0.192,0.853,0.192h362.667    c0.021,0,0.043-0.021,0.064-0.021c1.579-0.021,3.051-0.405,4.416-1.045c0.085-0.043,0.192-0.021,0.299-0.064    c0.469-0.235,0.789-0.64,1.195-0.939c0.64-0.448,1.28-0.832,1.813-1.408c0.469-0.512,0.768-1.088,1.131-1.685    c0.363-0.576,0.747-1.109,1.003-1.771c0.277-0.725,0.341-1.493,0.448-2.261c0.064-0.491,0.299-0.939,0.299-1.472V32    C384,26.112,379.221,21.333,373.333,21.333z M362.667,306.816l-97.131-194.24c-1.749-3.541-5.312-5.803-9.237-5.909    c-4.032-0.171-7.595,1.963-9.557,5.376l-78.4,137.216l-54.123-54.144c-2.283-2.261-5.504-3.413-8.683-3.051    c-3.2,0.341-6.101,2.133-7.829,4.843L21.333,315.691V42.667h341.333V306.816z" fill="#FFFFFF"/>
	</g>
</g>
<g>
	<g>
		<circle cx="117.333" cy="117.333" r="53.333" fill="#FFFFFF"/>
	</g>
</g>
<g>
	<g>
		<path d="M501.333,170.667H480c-5.888,0-10.667,4.779-10.667,10.667V416c0,17.643-14.357,32-32,32H138.667    c-5.888,0-10.667,4.779-10.667,10.667V480c0,5.888,4.779,10.667,10.667,10.667h362.667c5.888,0,10.667-4.779,10.667-10.667    V181.333C512,175.445,507.221,170.667,501.333,170.667z" fill="#FFFFFF"/>
	</g>
</g>
<g>
	<g>
		<path d="M437.333,85.333H416c-5.888,0-10.667,4.779-10.667,10.667v256c0,17.643-14.357,32-32,32H74.667    C68.779,384,64,388.779,64,394.667V416c0,5.888,4.779,10.667,10.667,10.667h362.667c5.888,0,10.667-4.779,10.667-10.667V96    C448,90.112,443.221,85.333,437.333,85.333z" fill="#FFFFFF"/>
	</g>
</g>
<g>
</g>
<g>
</g>
<g>
</g>
<g>
</g>
<g>
</g>
<g>
</g>
<g>
</g>
<g>
</g>
<g>
</g>
<g>
</g>
<g>
</g>
<g>
</g>
<g>
</g>
<g>
</g>
<g>
</g>
</svg>
