<?xml version="1.0" encoding="iso-8859-1"?>
<!-- Generator: Adobe Illustrator 18.1.1, SVG Export Plug-In . SVG Version: 6.00 Build 0)  -->
<svg xmlns="http://www.w3.org/2000/svg" xmlns:xlink="http://www.w3.org/1999/xlink" version="1.1" id="Capa_1" x="0px" y="0px" viewBox="0 0 32 32" style="enable-background:new 0 0 32 32;" xml:space="preserve" width="512px" height="512px">
<g>
	<g>
		<path d="M29.001,1.999V0h-23C5.917,0.004,5.293-0.008,4.556,0.354C3.808,0.686,2.965,1.645,3,3    c0,0.006,0.001,0.012,0.001,0.018V30c0,2,2,2,2,2h24V4h-2V1.999H29.001z M5.997,4c-0.012,0-0.05-0.001-0.145-0.018    C5.673,3.955,5.417,3.869,5.273,3.743C5.136,3.609,5.017,3.5,5.001,3c0.033-0.647,0.194-0.686,0.447-0.857    c0.13-0.065,0.289-0.106,0.404-0.125c0.117-0.021,0.147-0.013,0.149-0.019h19V4h-19C6.001,4,5.999,4,5.997,4z M27.001,30h-20V6h20    V30z" fill="#FFFFFF"/>
		<path d="M10.999,22c0,0,10.643,0,12,0c2,0,2-2,2-2s0-4,0-6s-2-2-2-2h-2l-2-2h-4l-2,2h-2c0,0-2,0-2,2    c0,1.068,0,4.705,0,6C8.999,22,10.999,22,10.999,22z M16.999,14c1.655,0,3,1.344,3,3c0,1.658-1.345,3-3,3c-1.658,0-3-1.342-3-3    C13.999,15.344,15.341,14,16.999,14z" fill="#FFFFFF"/>
	</g>
</g>
<g>
</g>
<g>
</g>
<g>
</g>
<g>
</g>
<g>
</g>
<g>
</g>
<g>
</g>
<g>
</g>
<g>
</g>
<g>
</g>
<g>
</g>
<g>
</g>
<g>
</g>
<g>
</g>
<g>
</g>
</svg>
